<?xml version="1.0" standalone="no"?>
<!DOCTYPE svg PUBLIC "-//W3C//DTD SVG 20010904//EN"
 "http://www.w3.org/TR/2001/REC-SVG-20010904/DTD/svg10.dtd">
<svg version="1.0" xmlns="http://www.w3.org/2000/svg"
 width="112.000000pt" height="114.000000pt" viewBox="0 0 112.000000 114.000000"
 preserveAspectRatio="xMidYMid meet">

<g transform="translate(0.000000,114.000000) scale(0.100000,-0.100000)"
fill="#000000" stroke="none">
<path d="M0 570 l0 -570 560 0 560 0 0 570 0 570 -560 0 -560 0 0 -570z m820
490 l0 -40 -390 0 -391 0 16 30 c10 18 27 33 48 39 17 5 186 10 375 10 l342 1
0 -40z m145 1 c138 -45 141 -72 14 -113 -46 -14 -94 -29 -106 -33 -23 -6 -23
-5 -23 84 0 66 3 91 13 91 6 0 52 -13 102 -29z m-145 -111 l0 -40 -361 0 -361
0 -31 33 -32 32 305 5 c168 3 344 6 393 8 l87 2 0 -40z m250 -149 c0 -85 -4
-131 -12 -139 -7 -7 -31 -12 -55 -12 l-42 0 -3 73 c-2 39 -7 72 -13 72 -5 0
-11 -33 -13 -73 l-3 -73 -57 3 -57 3 -3 73 c-4 99 -26 94 -30 -6 l-3 -72 -54
0 -54 0 -3 73 c-2 56 -6 72 -18 72 -12 0 -16 -16 -18 -72 l-3 -73 -74 0 -74 0
-3 73 c-2 39 -7 72 -13 72 -5 0 -11 -33 -13 -73 l-3 -73 -57 3 -57 3 -3 73
c-4 99 -26 94 -30 -6 l-3 -72 -54 0 -54 0 -3 73 c-2 56 -6 72 -18 72 -12 0
-16 -16 -18 -72 l-3 -73 -42 0 c-24 0 -48 5 -55 12 -8 8 -12 52 -12 130 l0
118 27 -17 c25 -16 62 -18 403 -20 l375 -2 105 33 c58 18 108 31 113 29 4 -2
7 -62 7 -132z m-70 -449 c0 -195 -3 -271 -12 -280 -9 -9 -84 -12 -275 -12
l-263 0 0 203 c0 148 -3 208 -13 220 -10 15 -27 17 -107 15 l-95 -3 -3 -218
-2 -217 -50 0 c-39 0 -52 4 -60 19 -11 22 -15 523 -3 534 3 4 204 7 445 7
l438 0 0 -268z"/>
<path d="M526 484 c-12 -30 -7 -249 6 -262 7 -7 32 -12 57 -12 28 0 59 -8 79
-20 l33 -20 39 20 c22 11 59 20 83 20 23 0 48 5 55 12 17 17 17 249 0 266 -17
17 -101 15 -141 -4 -31 -15 -36 -15 -65 0 -42 22 -138 22 -146 0z"/>
</g>
</svg>
